# xmcd
#
# Track frame offsets:
#	150
#	17960
#	34717
#	50737
#	67082
#	81159
#	120744
#	140267
#	157577
#	171894
#	195691
#	213133
#	229866
#	246366
#	265229
#	281742
#
# Disc length: 3966 seconds
#
# Revision: 1
# Processed by: cddbd v1.5.1PL2 Copyright (c) Steve Scherf et al.
# Submitted via: EasyCDDAExtractor 9.0.0.1
#
DISCID=e50f7c10
DTITLE=Demis Roussos - Greatest Hits - B
DYEAR=2003
DGENRE=Country
TTITLE0=My Reason
TTITLE1=Ainsi Soit~Il
TTITLE2=Auf Wiedersehn
TTITLE3=Forever And Ever
TTITLE4=Happy To Be On An Island In The Sun
TTITLE5=I Almost Lost My Mind
TTITLE6=Mourir Aupres De Mon Amour
TTITLE7=I Want To Live
TTITLE8=Lament
TTITLE9=Marie Jolie
TTITLE10=My Friend The Wind
TTITLE11=My Only Fascination
TTITLE12=Race To The End
TTITLE13=Sing An Ode To Love
TTITLE14=Velvet Morning
TTITLE15=We Shall Dance
EXTD=
EXTT0=
EXTT1=
EXTT2=
EXTT3=
EXTT4=
EXTT5=
EXTT6=
EXTT7=
EXTT8=
EXTT9=
EXTT10=
EXTT11=
EXTT12=
EXTT13=
EXTT14=
EXTT15=
PLAYORDER=
